<?xml version="1.0" encoding="UTF-8" standalone="no"?>
<!-- Created with Inkscape (http://www.inkscape.org/) -->

<svg
   width="127"
   height="126.99999"
   viewBox="0 0 33.602085 33.602081"
   version="1.1"
   id="svg1"
   xml:space="preserve"
   xmlns="http://www.w3.org/2000/svg"
   xmlns:svg="http://www.w3.org/2000/svg"
   xmlns:rdf="http://www.w3.org/1999/02/22-rdf-syntax-ns#"
   xmlns:cc="http://creativecommons.org/ns#"
   xmlns:dc="http://purl.org/dc/elements/1.1/"><defs
     id="defs1" /><metadata
     id="metadata1"><rdf:RDF><cc:Work
         rdf:about=""><dc:format>image/svg+xml</dc:format><dc:type
           rdf:resource="http://purl.org/dc/dcmitype/StillImage" /></cc:Work></rdf:RDF></metadata><g
     style="fill:#ffffff"
     id="g1"
     transform="matrix(0.46115876,0,0,0.46115876,2.6479555,1.8481484)"><path
       d="m 1.66669,18.3335 c -0.61075,0.6231 -0.952853,1.4608 -0.952853,2.3333 0,0.8725 0.342103,1.7102 0.952853,2.3333 L 18.3334,39.6668 c 0.6419,0.4814 1.4359,0.7152 2.2363,0.6583 0.8003,-0.0569 1.5533,-0.4006 2.1207,-0.9679 0.5674,-0.5674 0.911,-1.3204 0.9679,-2.1208 C 23.7152,36.4361 23.4815,35.642 23,35.0001 l -10.9333,-11 h 18.6 c 6.1884,0 12.1233,2.4584 16.4992,6.8342 C 51.5417,35.2102 54,41.1451 54,47.3335 v 13.3333 c 0,0.884 0.3512,1.7319 0.9763,2.357 0.6252,0.6251 1.473,0.9763 2.3571,0.9763 0.884,0 1.7319,-0.3512 2.357,-0.9763 0.6251,-0.6251 0.9763,-1.473 0.9763,-2.357 V 47.3335 c 0,-3.9397 -0.776,-7.8408 -2.2836,-11.4805 C 56.8754,32.2132 54.6657,28.906 51.8799,26.1203 49.0941,23.3345 45.787,21.1247 42.1472,19.6171 38.5074,18.1094 34.6063,17.3335 30.6667,17.3335 H 12.0334 l 11,-11.00004 C 23.5752,5.69197 23.855,4.86959 23.8168,4.03072 23.7786,3.19186 23.4252,2.39833 22.8272,1.80878 22.2292,1.21922 21.4307,0.877083 20.5914,0.850761 19.7521,0.824438 18.9338,1.11587 18.3,1.6668 L 1.63336,18.3335 Z"
       fill="#ababab"
       id="path1-8"
       style="fill:#ffffff" /></g></svg>
